Coordinates
version=1
nRows=34
nColumns=38
inDegrees=no

Units are S.I. units (second, meters, Newtons, ...)
If the header above contains a line with 'inDegrees', this indicates whether rotational values are in degrees (yes) or radians (no).

endheader
time	pelvis_tilt	pelvis_list	pelvis_rotation	pelvis_tx	pelvis_ty	pelvis_tz	hip_flexion_r	hip_adduction_r	hip_rotation_r	knee_angle_r	ankle_angle_r	subtalar_angle_r	mtp_angle_r	hip_flexion_l	hip_adduction_l	hip_rotation_l	knee_angle_l	ankle_angle_l	subtalar_angle_l	mtp_angle_l	lumbar_extension	lumbar_bending	lumbar_rotation	arm_flex_r	arm_add_r	arm_rot_r	elbow_flex_r	pro_sup_r	wrist_flex_r	wrist_dev_r	arm_flex_l	arm_add_l	arm_rot_l	elbow_flex_l	pro_sup_l	wrist_flex_l	wrist_dev_l
0.63	-0.244467	1.24341	-1.18453	0.63231	1.48224	0.957502	0.240667	0.0242555	-0.124313	1.11496	-0.124742	0	0	-0.319425	-0.0991423	-0.170851	0.20993	-0.243885	0	0	-0.37766	0.168609	0.143822	-0.056848	-0.749401	0.0950405	1.47123	0.505639	0	0	0.584891	-0.513238	0.835461	1.00685	0.620617	0	0
0.64	-0.245493	1.24621	-1.18093	0.632803	1.47327	0.95744	0.25163	0.0249151	-0.122225	1.07577	-0.119153	0	0	-0.32732	-0.100057	-0.17105	0.208767	-0.239559	0	0	-0.375117	0.168934	0.140948	-0.0565341	-0.748349	0.0957956	1.47008	0.506805	0	0	0.584277	-0.512804	0.83377	1.00575	0.621564	0	0
0.65	-0.247491	1.24994	-1.17687	0.633217	1.46424	0.957242	0.261165	0.0253803	-0.119779	1.03347	-0.1149	0	0	-0.33383	-0.10062	-0.171425	0.208346	-0.234957	0	0	-0.371659	0.169226	0.138015	-0.0558119	-0.747061	0.0969504	1.46879	0.508524	0	0	0.582666	-0.513423	0.831749	1.00581	0.624297	0	0
0.66	-0.250443	1.25468	-1.17268	0.633504	1.45515	0.95686	0.269403	0.0262922	-0.116863	0.987349	-0.112984	0	0	-0.339156	-0.100859	-0.171894	0.208384	-0.230569	0	0	-0.366928	0.169011	0.136032	-0.0555581	-0.745363	0.0974683	1.4671	0.510481	0	0	0.580375	-0.51351	0.828744	1.00584	0.627775	0	0
0.67	-0.253574	1.2603	-1.16916	0.633669	1.44595	0.956286	0.275981	0.0269828	-0.114037	0.936903	-0.113076	0	0	-0.34343	-0.100752	-0.172674	0.20949	-0.225676	0	0	-0.360919	0.168154	0.134973	-0.0557156	-0.743222	0.0975592	1.46484	0.513053	0	0	0.57736	-0.512854	0.824747	1.0055	0.630628	0	0
0.68	-0.25579	1.26661	-1.16718	0.633768	1.43661	0.955507	0.280894	0.0267804	-0.112328	0.883648	-0.112616	0	0	-0.346876	-0.100028	-0.174243	0.211402	-0.221025	0	0	-0.354105	0.166503	0.134456	-0.0563966	-0.740975	0.0971841	1.46262	0.515662	0	0	0.574249	-0.512356	0.821461	1.00559	0.632918	0	0
0.69	-0.256779	1.27326	-1.16707	0.633784	1.42709	0.954552	0.283672	0.0261746	-0.111585	0.827597	-0.11042	0	0	-0.350064	-0.0988095	-0.176114	0.214138	-0.216067	0	0	-0.346826	0.164181	0.134428	-0.0572982	-0.73853	0.0966127	1.46023	0.518039	0	0	0.571445	-0.512754	0.819923	1.00605	0.636444	0	0
0.7	-0.256472	1.27995	-1.16868	0.633753	1.41738	0.953413	0.283884	0.0254693	-0.11177	0.768162	-0.106797	0	0	-0.353238	-0.0972139	-0.178374	0.218347	-0.208959	0	0	-0.33879	0.161548	0.134787	-0.058423	-0.736122	0.0961502	1.45767	0.521089	0	0	0.568098	-0.512561	0.81786	1.00558	0.640243	0	0
0.71	-0.252578	1.28669	-1.17407	0.633693	1.40754	0.952082	0.282236	0.0236176	-0.113531	0.707724	-0.102371	0	0	-0.356545	-0.0946518	-0.180859	0.223632	-0.201021	0	0	-0.330716	0.157827	0.135467	-0.0598944	-0.734196	0.0958721	1.45557	0.523646	0	0	0.564965	-0.512327	0.816253	1.0052	0.643424	0	0
0.72	-0.246246	1.29366	-1.18214	0.633568	1.39752	0.950562	0.279036	0.0213236	-0.116439	0.646227	-0.0980305	0	0	-0.35946	-0.0912685	-0.183919	0.230003	-0.192147	0	0	-0.32232	0.153407	0.136358	-0.0615678	-0.732637	0.0959555	1.45386	0.525803	0	0	0.561253	-0.512036	0.813914	1.00501	0.644542	0	0
0.73	-0.237564	1.30051	-1.19247	0.633401	1.38737	0.948882	0.274062	0.0188426	-0.121122	0.584646	-0.0934511	0	0	-0.362519	-0.0875681	-0.187094	0.237173	-0.183072	0	0	-0.313921	0.148374	0.136992	-0.0630048	-0.731048	0.0965924	1.45218	0.527739	0	0	0.557288	-0.511875	0.8114	1.00507	0.643659	0	0
0.74	-0.227072	1.30718	-1.20419	0.633236	1.37704	0.947041	0.267377	0.0160082	-0.127589	0.523325	-0.0891418	0	0	-0.366126	-0.0838265	-0.189031	0.244176	-0.17384	0	0	-0.305367	0.143012	0.137273	-0.0646308	-0.729366	0.0973854	1.45055	0.530042	0	0	0.553881	-0.51218	0.810145	1.00492	0.643483	0	0
0.75	-0.215484	1.31363	-1.21696	0.633019	1.36661	0.945108	0.25842	0.0136787	-0.133262	0.46018	-0.0871272	0	0	-0.369824	-0.0800845	-0.1899	0.251761	-0.164706	0	0	-0.297092	0.137616	0.137605	-0.0666944	-0.727424	0.0973599	1.44958	0.532832	0	0	0.551044	-0.512824	0.809901	1.00443	0.644802	0	0
0.76	-0.202326	1.31902	-1.23115	0.632732	1.3561	0.943176	0.246087	0.0124653	-0.137923	0.394953	-0.0893475	0	0	-0.374224	-0.0767974	-0.190499	0.260611	-0.155775	0	0	-0.289982	0.132277	0.138114	-0.0691884	-0.725097	0.0961922	1.44916	0.536077	0	0	0.549261	-0.51341	0.81093	1.00317	0.647399	0	0
0.77	-0.186481	1.32346	-1.24769	0.632426	1.34549	0.941199	0.232234	0.0114079	-0.143308	0.333486	-0.0919528	0	0	-0.379808	-0.0737031	-0.190862	0.269075	-0.147946	0	0	-0.283875	0.126546	0.138786	-0.0722132	-0.722724	0.0942161	1.44914	0.538287	0	0	0.548108	-0.513337	0.811894	1.00156	0.647694	0	0
0.78	-0.168518	1.32675	-1.26583	0.632148	1.3348	0.939212	0.217083	0.010647	-0.148772	0.27721	-0.0939564	0	0	-0.386395	-0.070971	-0.191168	0.277763	-0.140627	0	0	-0.278625	0.120957	0.139642	-0.0756551	-0.720803	0.091932	1.44941	0.539792	0	0	0.547356	-0.512218	0.812327	0.99909	0.645419	0	0
0.79	-0.15067	1.32899	-1.2836	0.631895	1.32407	0.937193	0.201734	0.0104272	-0.15332	0.228195	-0.0966343	0	0	-0.393612	-0.0687915	-0.191214	0.286901	-0.133452	0	0	-0.274136	0.115941	0.140864	-0.0793109	-0.719979	0.0899012	1.45015	0.540366	0	0	0.54814	-0.510975	0.814882	0.995889	0.645934	0	0
0.8	-0.133798	1.33032	-1.30002	0.6317	1.31335	0.935115	0.188136	0.0103712	-0.158805	0.192179	-0.100192	0	0	-0.401148	-0.0671565	-0.190285	0.296819	-0.126298	0	0	-0.270652	0.111678	0.142039	-0.082857	-0.720172	0.088124	1.45172	0.540107	0	0	0.549267	-0.509193	0.816914	0.99273	0.648124	0	0
0.81	-0.1195	1.33094	-1.31358	0.631588	1.3027	0.933015	0.177227	0.0105438	-0.16478	0.171808	-0.102831	0	0	-0.408622	-0.0662124	-0.188163	0.307283	-0.119998	0	0	-0.268286	0.108554	0.142695	-0.0853374	-0.721199	0.087169	1.45379	0.539332	0	0	0.549421	-0.507043	0.816141	0.990476	0.649667	0	0
0.82	-0.108717	1.32942	-1.32338	0.631541	1.29215	0.931049	0.167608	0.0115845	-0.171785	0.167073	-0.104871	0	0	-0.417321	-0.0668265	-0.186383	0.318814	-0.113523	0	0	-0.268614	0.107388	0.143447	-0.0873439	-0.72347	0.0861263	1.45679	0.537943	0	0	0.549083	-0.503959	0.812547	0.988296	0.649854	0	0
0.83	-0.102857	1.32631	-1.32845	0.631473	1.28171	0.929207	0.159935	0.0140661	-0.178318	0.177863	-0.105103	0	0	-0.426567	-0.069121	-0.184681	0.331531	-0.10747	0	0	-0.271184	0.108135	0.144457	-0.0886673	-0.726625	0.0849277	1.46061	0.535465	0	0	0.549355	-0.501318	0.80926	0.986702	0.650828	0	0
0.84	-0.101509	1.32236	-1.32924	0.631319	1.27124	0.927484	0.154465	0.0179845	-0.184144	0.20183	-0.103323	0	0	-0.435541	-0.0730623	-0.183159	0.346017	-0.10204	0	0	-0.275011	0.110287	0.145725	-0.0897664	-0.730297	0.0835776	1.46523	0.53242	0	0	0.550251	-0.499097	0.806934	0.985708	0.651617	0	0
0.85	-0.103547	1.31823	-1.32693	0.631057	1.26061	0.925895	0.150546	0.0233008	-0.189331	0.233698	-0.0974907	0	0	-0.443753	-0.0782509	-0.181463	0.362603	-0.0972011	0	0	-0.279102	0.11347	0.147522	-0.0915976	-0.734265	0.0815187	1.4707	0.528733	0	0	0.551897	-0.497678	0.806707	0.984994	0.653917	0	0
0.86	-0.108178	1.31457	-1.32233	0.630636	1.24973	0.924511	0.145539	0.0305107	-0.190854	0.259526	-0.090996	0	0	-0.450806	-0.0843343	-0.178988	0.380268	-0.0949231	0	0	-0.282048	0.11714	0.149053	-0.0926323	-0.736976	0.0801841	1.47485	0.526927	0	0	0.552972	-0.49688	0.807245	0.984004	0.655308	0	0
0.87	-0.115313	1.31118	-1.31582	0.630023	1.23867	0.923367	0.140166	0.0387797	-0.189734	0.275556	-0.0877597	0	0	-0.456411	-0.0911877	-0.175792	0.400299	-0.0941016	0	0	-0.284493	0.121262	0.150953	-0.0931428	-0.739175	0.0797163	1.47817	0.526672	0	0	0.55324	-0.496162	0.807239	0.98298	0.655418	0	0
0.88	-0.12527	1.30889	-1.3078	0.629217	1.22752	0.922459	0.135962	0.0472737	-0.184804	0.280359	-0.0996112	0	0	-0.458886	-0.0981011	-0.171697	0.424	-0.095118	0	0	-0.285673	0.125669	0.153621	-0.0927505	-0.740572	0.0802103	1.48021	0.527762	0	0	0.551746	-0.494912	0.80505	0.981626	0.654831	0	0
0.89	-0.138648	1.30845	-1.29781	0.628242	1.21623	0.921748	0.132384	0.0564511	-0.176161	0.275657	-0.132426	0	0	-0.45666	-0.10497	-0.166683	0.452876	-0.0979973	0	0	-0.284476	0.130169	0.157048	-0.0915637	-0.741019	0.0818446	1.48044	0.530796	0	0	0.547731	-0.492998	0.799583	0.98002	0.653509	0	0
0.9	-0.153121	1.31223	-1.28875	0.626948	1.20478	0.920969	0.132461	0.0652221	-0.162881	0.270963	-0.171003	0	0	-0.446661	-0.110329	-0.159046	0.488689	-0.102979	0	0	-0.278597	0.13293	0.161419	-0.089734	-0.739984	0.0846119	1.4787	0.534899	0	0	0.542017	-0.491997	0.793187	0.978758	0.654354	0	0
0.91	-0.167175	1.31586	-1.28046	0.625581	1.19322	0.92051	0.131947	0.0736125	-0.149419	0.271178	-0.204056	0	0	-0.433153	-0.115916	-0.150165	0.531618	-0.112069	0	0	-0.272661	0.135279	0.165679	-0.0875398	-0.738045	0.0877445	1.47586	0.539639	0	0	0.53571	-0.491868	0.786733	0.978269	0.657208	0	0
0.92	-0.17999	1.31714	-1.27393	0.624175	1.18178	0.920505	0.130887	0.081121	-0.136123	0.281474	-0.226801	0	0	-0.417899	-0.122248	-0.141738	0.582215	-0.125765	0	0	-0.269715	0.137972	0.17054	-0.0852786	-0.736327	0.0904191	1.47349	0.543824	0	0	0.529879	-0.492158	0.780692	0.978668	0.660652	0	0
0.93	-0.190961	1.31552	-1.26969	0.6228	1.17049	0.92096	0.128896	0.0872016	-0.125086	0.302234	-0.240042	0	0	-0.401195	-0.129768	-0.135633	0.639895	-0.14562	0	0	-0.270598	0.141098	0.176221	-0.0833195	-0.735868	0.0927967	1.47242	0.547072	0	0	0.525069	-0.492921	0.775869	0.980095	0.664352	0	0
0.94	-0.199287	1.31131	-1.26724	0.621681	1.15925	0.921813	0.123877	0.0908306	-0.120884	0.327086	-0.246712	0	0	-0.382336	-0.139207	-0.131657	0.704742	-0.171614	0	0	-0.274359	0.144757	0.181797	-0.0829115	-0.737158	0.0943143	1.47317	0.54844	0	0	0.521506	-0.493567	0.772917	0.981708	0.667372	0	0
0.95	-0.206173	1.30515	-1.26528	0.620796	1.14806	0.922912	0.112848	0.0934368	-0.121718	0.345199	-0.249793	0	0	-0.360736	-0.150878	-0.130288	0.775583	-0.203944	0	0	-0.280201	0.149109	0.187245	-0.0843144	-0.740256	0.0946932	1.4761	0.547803	0	0	0.518804	-0.493621	0.770863	0.983557	0.667217	0	0
0.96	-0.213573	1.29722	-1.26189	0.620042	1.13695	0.924111	0.0953648	0.0970578	-0.125796	0.352733	-0.252012	0	0	-0.337091	-0.165078	-0.131385	0.849737	-0.244573	0	0	-0.287818	0.154514	0.192798	-0.0877074	-0.745372	0.0939245	1.4817	0.544875	0	0	0.517996	-0.49432	0.771986	0.986197	0.665981	0	0
